<svg width="320" height="356" viewBox="0 0 820 356" fill="none" xmlns="http://www.w3.org/2000/svg">
<path d="M536.919 134.331C537.964 133.365 539.207 132.64 540.562 132.208C541.916 131.775 543.349 131.645 544.759 131.827C546.17 132.008 547.523 132.497 548.724 133.259C549.925 134.02 550.945 135.036 551.711 136.235L573.594 132.341L579.201 145.073L548.222 150.137C546.124 151.292 543.676 151.637 541.342 151.106C539.007 150.575 536.948 149.206 535.555 147.258C534.162 145.31 533.531 142.917 533.783 140.535C534.034 138.152 535.15 135.945 536.919 134.331Z" fill="#FFB6B6"/>
<path d="M557.179 150.587L579.992 150.302L582.88 150.263L629.294 149.678C629.294 149.678 641.898 137.644 652.873 125.254L651.335 114.119C649.835 103.19 644.418 93.1802 636.093 85.9506C620.374 96.4622 611.258 117.269 611.258 117.269L582.48 124.157L579.601 124.846L561.719 129.123L557.179 150.587Z" fill="#6C63FF"/>
<path d="M673.962 219.028H631.378C631.378 220.854 584.829 222.336 584.829 222.336C583.802 223.11 582.866 223.998 582.039 224.983C579.554 227.949 578.196 231.698 578.204 235.569V238.215C578.206 242.601 579.948 246.808 583.047 249.909C586.146 253.011 590.349 254.754 594.732 254.756H673.962C678.344 254.752 682.546 253.008 685.644 249.907C688.743 246.806 690.486 242.601 690.489 238.215V235.569C690.483 231.184 688.74 226.98 685.642 223.88C682.544 220.779 678.344 219.034 673.962 219.028Z" fill="#E4E4E4"/>
<path d="M642.995 254.098H625.807V353.389H642.995V254.098Z" fill="#E4E4E4"/>
<path d="M576.886 352.785C576.886 354.643 602.932 353.504 635.062 353.504C667.192 353.504 693.239 354.643 693.239 352.785C693.239 350.926 667.192 336.187 635.062 336.187C602.932 336.187 576.886 350.926 576.886 352.785Z" fill="#E4E4E4"/>
<path d="M565.34 341.44L552.547 341.439L546.462 292.058L565.342 292.059L565.34 341.44Z" fill="#FFB6B6"/>
<path d="M568.602 353.85L527.354 353.848V353.326C527.355 349.065 529.046 344.978 532.057 341.965C535.068 338.952 539.151 337.259 543.409 337.259H543.41L568.603 337.26L568.602 353.85Z" fill="#2F2E41"/>
<path d="M527.531 341.44L514.739 341.439L508.653 292.058L527.533 292.059L527.531 341.44Z" fill="#FFB6B6"/>
<path d="M530.793 353.85L489.546 353.848V353.326C489.546 349.065 491.237 344.978 494.248 341.965C497.259 338.952 501.342 337.259 505.6 337.259H505.601L530.794 337.26L530.793 353.85Z" fill="#2F2E41"/>
<path d="M642.122 57.1496C654.406 57.1496 664.364 47.1836 664.364 34.8898C664.364 22.5961 654.406 12.63 642.122 12.63C629.838 12.63 619.879 22.5961 619.879 34.8898C619.879 47.1836 629.838 57.1496 642.122 57.1496Z" fill="#FFB6B6"/>
<path d="M678.12 187.406C678.12 187.406 685.583 226.9 657.188 231.929C628.793 236.958 587.803 240.493 587.803 240.493L569.396 326.441L544.667 324.231C544.667 324.231 547.956 220.769 556.044 212.675C564.132 204.58 615.252 180.344 615.252 180.344L678.12 187.406Z" fill="#2F2E41"/>
<path d="M622.662 170.853L610.244 183.322C610.244 183.322 520.573 197.777 517.113 218.504C511.891 249.797 505.722 317.847 505.722 317.847L532.682 315.823L543.254 238.469L586.391 228.649L635.469 201.882L622.662 170.853Z" fill="#2F2E41"/>
<path d="M663.525 21.6024C661.329 17.4565 658.54 9.19385 654.108 7.66144C651.647 6.84476 649.103 6.30246 646.523 6.0444L638.991 8.94384L643.09 5.75286C642.292 5.70527 641.494 5.66636 640.697 5.63614L635.615 7.59241L638.215 5.56845C633.477 5.51978 628.586 6.01284 624.915 8.89955C621.785 11.3605 618.684 20.6829 618.182 24.6345C617.646 28.4148 617.834 32.2626 618.735 35.9727L620.022 37.1976C620.472 36.1644 620.811 35.086 621.032 33.9807C621.493 31.9156 622.38 29.9693 623.634 28.266C624.889 26.5626 626.484 25.1395 628.319 24.0873L628.389 24.0478C630.548 22.8319 633.167 22.8879 635.642 22.9771L647.4 23.4005C650.228 23.5024 653.274 23.6815 655.479 25.4572C656.881 26.7672 657.983 28.3649 658.71 30.1409C659.806 32.3543 661.947 40.7028 661.947 40.7028C661.947 40.7028 663.159 39.1269 663.739 40.2998C664.671 37.2396 665.237 34.0799 665.426 30.8865C665.611 27.6789 664.956 24.4785 663.525 21.6024Z" fill="#2F2E41"/>
<path d="M741.319 44.6653C739.9 44.7588 738.519 45.1625 737.273 45.8479C736.027 46.5334 734.946 47.4839 734.107 48.6326C733.267 49.7813 732.69 51.1002 732.415 52.4964C732.14 53.8925 732.175 55.332 732.516 56.7135L714.63 69.9175L719.996 82.7525L744.993 63.7508C747.274 63.0234 749.209 61.4839 750.432 59.424C751.654 57.3642 752.08 54.9271 751.627 52.5745C751.174 50.222 749.874 48.1175 747.974 46.6597C746.075 45.202 743.706 44.4924 741.319 44.6653Z" fill="#FFB6B6"/>
<path d="M738.44 71.6215L693.601 121.459C693.601 121.459 672.158 114.589 655.575 107.141L648.125 84.2415C646.395 78.9291 645.657 73.3433 645.947 67.7634C668.936 61.6411 695.676 84.421 695.676 84.421L729.239 58.1098L738.44 71.6215Z" fill="#6C63FF"/>
<path d="M633.814 191.086C625.814 188.321 617.542 185.461 608.62 184.388L608.237 184.341L608.342 183.97C617.579 151.515 615.273 130.754 610.747 99.5675C609.784 92.8406 611.021 85.9826 614.273 80.017C617.525 74.0514 622.617 69.2981 628.79 66.4667L628.844 66.4419L654.327 64.8213L654.386 64.8178L672.919 70.2729C675.585 71.0635 677.918 72.707 679.562 74.9517C681.205 77.1964 682.068 79.9185 682.018 82.7009C681.817 92.9571 682.243 104.408 682.694 116.531C683.705 143.728 684.751 171.85 678.817 190.097L678.786 190.193L678.706 190.255C673.251 194.702 666.416 197.104 659.381 197.049C651.062 197.049 642.573 194.114 633.814 191.086Z" fill="#6C63FF"/>
</svg>
