<?xml version="1.0" encoding="utf-8"?>
<!-- Generator: Adobe Illustrator 25.2.0, SVG Export Plug-In . SVG Version: 6.00 Build 0)  -->
<svg version="1.1" id="Layer_1" xmlns="http://www.w3.org/2000/svg" xmlns:xlink="http://www.w3.org/1999/xlink" x="0px" y="0px"
	 viewBox="0 0 320 356" style="enable-background:new 0 0 320 356;" xml:space="preserve">
<style type="text/css">
	.st0{fill:#FFB6B6;}
	.st1{fill:#6C63FF;}
	.st2{fill:#E4E4E4;}
	.st3{fill:#2F2E41;}
</style>
<path class="st0" d="M127.5,164.5c0.3-0.3,0.7-0.5,1.1-0.6c0.4-0.1,0.8-0.2,1.2-0.1c0.4,0.1,0.8,0.2,1.2,0.4
	c0.4,0.2,0.7,0.5,0.9,0.9l6.5-1.2l1.7,3.8l-9.2,1.5c-0.6,0.3-1.4,0.4-2,0.3c-0.7-0.2-1.3-0.6-1.7-1.1s-0.6-1.3-0.5-2
	C126.7,165.6,127,165,127.5,164.5z"/>
<path class="st1" d="M133.5,169.3l6.8-0.1l0.9,0l13.8-0.2c0,0,3.7-3.6,7-7.3l-0.5-3.3c-0.4-3.2-2.1-6.2-4.5-8.4
	c-4.7,3.1-7.4,9.3-7.4,9.3l-8.6,2l-0.9,0.2l-5.3,1.3L133.5,169.3z"/>
<path class="st2" d="M168.3,189.7h-12.7c0,0.5-13.8,1-13.8,1c-0.3,0.2-0.6,0.5-0.8,0.8c-0.7,0.9-1.1,2-1.1,3.1v0.8
	c0,1.3,0.5,2.6,1.4,3.5c0.9,0.9,2.2,1.4,3.5,1.4h23.6c1.3,0,2.6-0.5,3.5-1.4c0.9-0.9,1.4-2.2,1.4-3.5v-0.8c0-1.3-0.5-2.6-1.4-3.5
	C170.8,190.2,169.6,189.7,168.3,189.7z"/>
<path class="st2" d="M159.1,200.1H154v29.5h5.1V200.1z"/>
<path class="st2" d="M139.4,229.5c0,0.6,7.7,0.2,17.3,0.2s17.3,0.3,17.3-0.2c0-0.6-7.7-4.9-17.3-4.9S139.4,228.9,139.4,229.5z"/>
<path class="st0" d="M136,226.1l-3.8,0l-1.8-14.7l5.6,0L136,226.1z"/>
<path class="st3" d="M136.9,229.8l-12.3,0v-0.2c0-1.3,0.5-2.5,1.4-3.4c0.9-0.9,2.1-1.4,3.4-1.4h0l7.5,0L136.9,229.8z"/>
<path class="st0" d="M124.7,226.1l-3.8,0l-1.8-14.7l5.6,0L124.7,226.1z"/>
<path class="st3" d="M125.7,229.8l-12.3,0v-0.2c0-1.3,0.5-2.5,1.4-3.4c0.9-0.9,2.1-1.4,3.4-1.4h0l7.5,0L125.7,229.8z"/>
<path class="st0" d="M158.8,141.6c3.7,0,6.6-3,6.6-6.6c0-3.7-3-6.6-6.6-6.6s-6.6,3-6.6,6.6C152.2,138.6,155.2,141.6,158.8,141.6z"/>
<path class="st3" d="M169.5,180.3c0,0,2.2,11.7-6.2,13.2c-8.4,1.5-20.6,2.5-20.6,2.5l-5.5,25.6l-7.4-0.7c0,0,1-30.8,3.4-33.2
	c2.4-2.4,17.6-9.6,17.6-9.6L169.5,180.3z"/>
<path class="st3" d="M153,175.4l-3.7,3.7c0,0-26.7,4.3-27.7,10.5c-1.6,9.3-3.4,29.5-3.4,29.5l8-0.6l3.1-23l12.8-2.9l14.6-8
	L153,175.4z"/>
<path class="st3" d="M165.2,131c-0.7-1.2-1.5-3.7-2.8-4.1c-0.7-0.2-1.5-0.4-2.3-0.5l-2.2,0.9l1.2-0.9c-0.2,0-0.5,0-0.7,0l-1.5,0.6
	l0.8-0.6c-1.4,0-2.9,0.1-4,1c-0.9,0.7-1.9,3.5-2,4.7c-0.2,1.1-0.1,2.3,0.2,3.4l0.4,0.4c0.1-0.3,0.2-0.6,0.3-1
	c0.1-0.6,0.4-1.2,0.8-1.7c0.4-0.5,0.8-0.9,1.4-1.2l0,0c0.6-0.4,1.4-0.3,2.2-0.3l3.5,0.1c0.8,0,1.7,0.1,2.4,0.6
	c0.4,0.4,0.7,0.9,1,1.4c0.3,0.7,1,3.1,1,3.1s0.4-0.5,0.5-0.1c0.3-0.9,0.4-1.8,0.5-2.8C165.8,132.8,165.6,131.8,165.2,131z"/>
<path class="st0" d="M188.3,137.8c-0.4,0-0.8,0.1-1.2,0.4c-0.4,0.2-0.7,0.5-0.9,0.8c-0.2,0.3-0.4,0.7-0.5,1.1
	c-0.1,0.4-0.1,0.8,0,1.3l-5.3,3.9l1.6,3.8l7.4-5.7c0.7-0.2,1.3-0.7,1.6-1.3c0.4-0.6,0.5-1.3,0.4-2c-0.1-0.7-0.5-1.3-1.1-1.8
	C189.7,138,189,137.8,188.3,137.8z"/>
<path class="st1" d="M187.4,145.9l-13.3,14.8c0,0-6.4-2-11.3-4.3l-2.2-6.8c-0.5-1.6-0.7-3.2-0.6-4.9c6.8-1.8,14.8,5,14.8,5l10-7.8
	L187.4,145.9z"/>
<path class="st1" d="M156.3,181.4c-2.4-0.8-4.8-1.7-7.5-2l-0.1,0l0-0.1c2.7-9.7,2.1-15.8,0.7-25.1c-0.3-2,0.1-4,1-5.8
	c1-1.8,2.5-3.2,4.3-4l0,0l7.6-0.5l0,0l5.5,1.6c0.8,0.2,1.5,0.7,2,1.4c0.5,0.7,0.7,1.5,0.7,2.3c-0.1,3,0.1,6.5,0.2,10.1
	c0.3,8.1,0.6,16.4-1.2,21.9l0,0l0,0c-1.6,1.3-3.7,2-5.7,2C161.5,183.2,158.9,182.3,156.3,181.4z"/>
</svg>
